<?xml version="1.0" encoding="utf-8"?>
<!-- Generator: Adobe Illustrator 19.1.0, SVG Export Plug-In . SVG Version: 6.00 Build 0)  -->
<svg version="1.1" id="Layer_1" xmlns="http://www.w3.org/2000/svg" xmlns:xlink="http://www.w3.org/1999/xlink" x="0px" y="0px"
	 viewBox="-243.8 339.9 113 113" style="enable-background:new -243.8 339.9 113 113;" xml:space="preserve">
<style type="text/css">
	.st0{fill:#333333;}
</style>
<g>
	<path class="st0" d="M-187.8,373.5c-2.4,0-4.4-0.6-6.1-1.9c-1.7-1.3-2.5-3-2.5-5.3c0-2.1,0.9-3.8,2.6-5.1c1.7-1.3,3.7-2,6-2
		c2.2,0,4.2,0.6,5.9,1.8c1.7,1.2,2.6,3,2.6,5.3c0,2.3-0.8,4-2.5,5.3C-183.5,372.9-185.5,373.5-187.8,373.5z M-179.4,384.6V427
		c0,2.9-0.8,5.2-2.4,6.7c-1.6,1.5-3.7,2.3-6.2,2.3c-2.5,0-4.5-0.8-6.1-2.3c-1.6-1.5-2.3-3.7-2.3-6.6v-42c0-2.9,0.8-5.1,2.3-6.6
		c1.6-1.5,3.6-2.2,6.1-2.2c2.5,0,4.6,0.7,6.2,2.2C-180.2,379.9-179.4,382-179.4,384.6z"/>
</g>
<path class="st0" d="M-130.8,351.7c0-6.5-5.3-11.8-11.8-11.8h-89.4c-6.5,0-11.8,5.3-11.8,11.8v89.4c0,6.5,5.3,11.8,11.8,11.8h89.4
	c6.5,0,11.8-5.3,11.8-11.8L-130.8,351.7L-130.8,351.7z M-187.1,446.4c-27.2,0-49.3-22.1-49.3-49.3s22.1-49.3,49.3-49.3
	s49.3,21.4,49.3,49.3C-137.8,424.4-159.9,446.4-187.1,446.4z"/>
</svg>
