<?xml version="1.0" encoding="utf-8"?>
<!-- Generator: Adobe Illustrator 19.1.0, SVG Export Plug-In . SVG Version: 6.00 Build 0)  -->
<svg version="1.1" id="Layer_1" xmlns="http://www.w3.org/2000/svg" xmlns:xlink="http://www.w3.org/1999/xlink" x="0px" y="0px"
	 viewBox="-248 340 113.4 114" style="enable-background:new -248 340 113.4 114;" xml:space="preserve">
<style type="text/css">
	.st0{fill:#A7A9AE;}
</style>
<g>
	<polygon class="st0" points="-180.5,378.6 -181.3,377.8 -192.9,389.4 -182.1,400.2 -170.5,388.6 -171.4,387.7 -163.9,380.2 
		-173,371.1 	"/>
	
		<rect x="-208.6" y="400.8" transform="matrix(0.7071 0.7071 -0.7071 0.7071 231.1097 266.2478)" class="st0" width="5.5" height="22.5"/>
	<path class="st0" d="M-186.3,402.2l3-1.5l-9.9-9.9l-1.7,2.6c-8.8-9-17.9-18.3-17.9-18.3c-0.6-0.6-1.8-0.3-2.8,0.7
		c-0.9,0.9-1.2,2.1-1,2.3l19.1,19.2l-2.3,3.5l5.3,5.3l3.8-1.9l8.9,8.9l10.3,8.3l0.7-0.6l-7.8-10.7
		C-178.6,410-181.8,406.7-186.3,402.2z"/>
	<path class="st0" d="M-145.8,340c6.8,0,11.2,1.4,11.2,8v-8H-145.8z"/>
	<path class="st0" d="M-235.7,340H-248v10C-248,343.3-242.5,340-235.7,340z"/>
	<path class="st0" d="M-145.8,454h11.2v-16C-134.6,444.6-139,454-145.8,454z"/>
	<path class="st0" d="M-140,392.1l-45.4-45.4c-3.3-3.3-8.7-3.3-12,0l-45.4,45.4c-3.3,3.3-3.3,8.7,0,12l45.4,45.4
		c3.3,3.3,8.6,3.3,11.9,0l45.4-45.4C-136.8,400.8-136.8,395.5-140,392.1z M-166.5,423.2c-13.8,13.8-36.2,13.8-50,0s-13.8-36.2,0-50
		s35.9-14.1,50,0C-152.7,387-152.7,409.4-166.5,423.2z"/>
	<path class="st0" d="M-248,441v13h12.3C-242.4,454-248,447.6-248,441z"/>
</g>
</svg>
