<?xml version="1.0" encoding="utf-8"?>
<!-- Generator: Adobe Illustrator 19.1.0, SVG Export Plug-In . SVG Version: 6.00 Build 0)  -->
<svg version="1.1" id="Layer_1" xmlns="http://www.w3.org/2000/svg" xmlns:xlink="http://www.w3.org/1999/xlink" x="0px" y="0px"
	 viewBox="-248 340 113.4 114" style="enable-background:new -248 340 113.4 114;" xml:space="preserve">
<style type="text/css">
	.st0{fill:#333333;}
</style>
<path class="st0" d="M-134.6,348c0-6.6-4.4-8-11.2-8h-89.9c-6.8,0-12.3,3.3-12.3,10v91c0,6.6,5.6,13,12.3,13h89.9
	c6.8,0,11.2-9.4,11.2-16V348L-134.6,348z M-140.1,404.1l-45.4,45.4c-3.3,3.3-8.6,3.3-11.9,0l-45.4-45.4c-3.3-3.3-3.3-8.7,0-12
	l45.4-45.4c3.3-3.3,8.7-3.3,12,0l45.4,45.4C-136.8,395.5-136.8,400.8-140.1,404.1z"/>
<path class="st0" d="M-166.5,373.2c-14.1-14.1-36.2-13.8-50,0s-13.8,36.2,0,50s36.2,13.8,50,0S-152.7,387-166.5,373.2z M-211.9,422
	l-3.9-3.9l15.9-15.9l3.9,3.9L-211.9,422z M-171.5,421.4l-10.3-8.3l-8.9-8.9l-3.8,1.9l-5.3-5.3l2.3-3.5l-19.1-19.2
	c-0.2-0.2,0.1-1.4,1-2.3c1-1,2.2-1.3,2.8-0.7c0,0,9.1,9.3,17.9,18.3l1.7-2.6l9.9,9.9l-3,1.5c4.5,4.5,7.7,7.8,7.7,7.9l7.8,10.7
	L-171.5,421.4z M-170.5,388.6l-11.6,11.6l-10.8-10.8l11.6-11.6l0.8,0.8l7.5-7.5l9.1,9.1l-7.5,7.5L-170.5,388.6z"/>
</svg>
