<?xml version="1.0" encoding="utf-8"?>
<!-- Generator: Adobe Illustrator 19.1.0, SVG Export Plug-In . SVG Version: 6.00 Build 0)  -->
<svg version="1.1" id="Layer_1" xmlns="http://www.w3.org/2000/svg" xmlns:xlink="http://www.w3.org/1999/xlink" x="0px" y="0px"
	 viewBox="-248 340.2 113.5 113.8" style="enable-background:new -248 340.2 113.5 113.8;" xml:space="preserve">
<style type="text/css">
	.st0{fill:#333333;}
</style>
<path class="st0" d="M-247.3,420.2l20.3-28.9c0.4-0.5,1-0.8,1.5-0.8c1.1,0,2,1.4,2,2.9v17.3h87.1c1.1,0,2,1.4,2,2.9v17.3
	c0,1.5-0.9,2.9-2,2.9h-87.1v17.3c0,1.6-0.9,2.9-2,2.9c-0.6,0-1.1-0.4-1.5-0.9l-20.2-28.8c-0.4-0.5-0.6-1.4-0.6-2.1
	S-247.8,420.7-247.3,420.2z M-247.9,363.3c0-1.5,0.9-2.9,2-2.9h87.1v-17.3c0-1.5,0.9-2.9,2-2.9c0.6,0,1.1,0.4,1.5,0.9l20.2,28.9
	c0.4,0.5,0.6,1.3,0.6,2c0,0.8-0.2,1.5-0.6,2.1l-20.3,28.9c-0.4,0.5-0.9,0.8-1.5,0.8c-1.1,0-2-1.3-2-2.9v-17.3h-87.1
	c-1.1,0-2-1.3-2-2.9C-247.9,380.6-247.9,363.3-247.9,363.3z"/>
</svg>
