<?xml version="1.0" encoding="utf-8"?>
<!-- Generator: Adobe Illustrator 19.1.0, SVG Export Plug-In . SVG Version: 6.00 Build 0)  -->
<svg version="1.1" id="Layer_1" xmlns="http://www.w3.org/2000/svg" xmlns:xlink="http://www.w3.org/1999/xlink" x="0px" y="0px"
	 viewBox="0 0 118 118" style="enable-background:new 0 0 118 118;" xml:space="preserve">
<style type="text/css">
	.st0{fill:#A7A9AE;}
</style>
<g>
	<g>
		<path class="st0" d="M96.562,115.674l-86.182,1.612c-6.155-0.331-7.977-2.999-7.574-6.554l9.336-77.077
			c0.461-3.581,3.672-7.7,9.642-6.399l89.041,18.163c2.671,0.505,7.393,4.635,5.79,12.231l-10.68,51.996
			C105.479,116.053,101.108,115.435,96.562,115.674z"/>
	</g>
	<g>
		<path class="st0" d="M107.908,26.654l-30.913-8.943l-0.557-6.061c-0.182-2.735-1.044-3.531-4.687-4.473L57.013,2.705
			c-1.404-0.482-5.081-2.065-6.237,2.233l-1.482,5.852L19.04,2.715C10.67,0.111,6.032,5.68,6.032,14.134L4.225,82.791l5.271-53.659
			c0.513-4.233,2.865-8.364,8.957-7.208l95.885,20.545l0.525-5.248C115.425,31.014,113.85,28.167,107.908,26.654z M53.587,9.145
			c0.596-2.296,0.195-3.901,3.233-2.847l12.777,3.667c2.525,0.744,3.506,0.567,3.628,4.078v2.682l-20.16-5.032L53.587,9.145z"/>
	</g>
</g>
</svg>
