<?xml version="1.0" encoding="utf-8"?>
<!-- Generator: Adobe Illustrator 19.1.0, SVG Export Plug-In . SVG Version: 6.00 Build 0)  -->
<svg version="1.1" id="Layer_1" xmlns="http://www.w3.org/2000/svg" xmlns:xlink="http://www.w3.org/1999/xlink" x="0px" y="0px"
	 viewBox="-248 340.2 113.8 113.8" style="enable-background:new -248 340.2 113.8 113.8;" xml:space="preserve">
<style type="text/css">
	.st0{fill:#333333;}
</style>
<g>
	<path class="st0" d="M-134.2,397.1c0,31.4-25.5,56.9-56.9,56.9s-56.9-25.5-56.9-56.9s25.5-56.9,56.9-56.9S-134.2,365.6-134.2,397.1
		z M-221.8,407.7c-1.1-3.4-1.8-6.9-1.8-10.6s0.6-7.2,1.8-10.6l-12.3-12.3c-3.6,6.9-5.7,14.7-5.7,22.9c0,8.3,2.1,16.1,5.7,22.9
		L-221.8,407.7z M-166.7,397.1c0-13.5-10.9-24.4-24.4-24.4s-24.4,10.9-24.4,24.4s10.9,24.4,24.4,24.4
		C-177.6,421.5-166.7,410.6-166.7,397.1z M-214,354l12.3,12.3c3.4-1.1,6.9-1.8,10.6-1.8c3.7,0,7.2,0.6,10.6,1.8l12.3-12.3
		c-6.9-3.6-14.7-5.7-22.9-5.7C-199.4,348.3-207.2,350.4-214,354z M-168.2,440.2l-12.3-12.3c-3.4,1.1-6.9,1.8-10.6,1.8
		c-3.7,0-7.2-0.6-10.6-1.8l-12.3,12.3c6.9,3.6,14.7,5.7,22.9,5.7S-175,443.8-168.2,440.2z M-148,420c3.6-6.9,5.7-14.7,5.7-22.9
		s-2.1-16.1-5.7-22.9l-12.3,12.3c1.1,3.4,1.8,6.9,1.8,10.6s-0.6,7.2-1.8,10.6L-148,420z"/>
</g>
</svg>
