<?xml version="1.0" encoding="utf-8"?>
<!-- Generator: Adobe Illustrator 19.1.0, SVG Export Plug-In . SVG Version: 6.00 Build 0)  -->
<svg version="1.1" id="Layer_1" xmlns="http://www.w3.org/2000/svg" xmlns:xlink="http://www.w3.org/1999/xlink" x="0px" y="0px"
	 viewBox="0 0 118 118" style="enable-background:new 0 0 118 118;" xml:space="preserve">
<style type="text/css">
	.st0{fill:#A7A9AE;}
</style>
<g>
	<path class="st0" d="M84.508,79.949l-1.177-6.393l-40.396,0.843c-4.346-0.26-5.633-2.362-5.348-5.163l3.865-35.605L9.497,32.964
		c-4.346,0.26-5.633,2.362-5.348,5.163l6.592,60.726c0.326,2.821,2.593,6.066,6.808,5.042l7.231-1.646
		c1.018,6.204,4.273,13.47,13.735,15.142l3.535-1.267c-5.628-4.669-5.112-12.401-4.216-16.846l42.586-9.693
		C82.306,89.187,85.64,85.933,84.508,79.949z"/>
	<path class="st0" d="M113.725,17.364L52.693,3.463C48.601,2.467,46.4,5.62,46.084,8.361l-6.399,58.995
		c-0.277,2.721,0.972,4.763,5.191,5.016l44.139-0.922c1.549,7.22,1.954,17.261-5.26,23.379l3.493,1.39
		c9.819-1.312,13.54-13.906,14.896-25.043l1.805-0.038c3.116-0.183,6.112,0.29,6.425-4.614l7.321-39.798
		C118.793,20.912,115.556,17.751,113.725,17.364z"/>
</g>
</svg>
